<mxfile host="app.diagrams.net" modified="2023-04-21T05:27:35.110Z" agent="Mozilla/5.0 (Windows NT 10.0; Win64; x64) AppleWebKit/537.36 (KHTML, like Gecko) Chrome/112.0.0.0 Safari/537.36" etag="3KKgqW6Q25ftNm7MtjLO" version="21.2.1" type="device">
  <diagram name="페이지-1" id="53MKPhmhhRG6idh2fYfO">
    <mxGraphModel dx="1593" dy="840" grid="1" gridSize="10" guides="1" tooltips="1" connect="1" arrows="1" fold="1" page="1" pageScale="1" pageWidth="4681" pageHeight="3300" math="0" shadow="0">
      <root>
        <mxCell id="0" />
        <mxCell id="1" parent="0" />
        <mxCell id="NxFaUKbc9Dm4StmFoYIx-25" style="edgeStyle=orthogonalEdgeStyle;sketch=1;hachureGap=4;jiggle=2;curveFitting=1;orthogonalLoop=1;jettySize=auto;html=1;entryX=0.5;entryY=0;entryDx=0;entryDy=0;fontFamily=Architects Daughter;fontSource=https%3A%2F%2Ffonts.googleapis.com%2Fcss%3Ffamily%3DArchitects%2BDaughter;fontSize=16;curved=1;exitX=0.5;exitY=1;exitDx=0;exitDy=0;" edge="1" parent="1" source="NxFaUKbc9Dm4StmFoYIx-15" target="NxFaUKbc9Dm4StmFoYIx-17">
          <mxGeometry relative="1" as="geometry" />
        </mxCell>
        <mxCell id="NxFaUKbc9Dm4StmFoYIx-26" style="edgeStyle=orthogonalEdgeStyle;sketch=1;hachureGap=4;jiggle=2;curveFitting=1;orthogonalLoop=1;jettySize=auto;html=1;entryX=0.5;entryY=0;entryDx=0;entryDy=0;fontFamily=Architects Daughter;fontSource=https%3A%2F%2Ffonts.googleapis.com%2Fcss%3Ffamily%3DArchitects%2BDaughter;fontSize=16;curved=1;" edge="1" parent="1" source="NxFaUKbc9Dm4StmFoYIx-15" target="NxFaUKbc9Dm4StmFoYIx-19">
          <mxGeometry relative="1" as="geometry" />
        </mxCell>
        <mxCell id="NxFaUKbc9Dm4StmFoYIx-27" style="edgeStyle=orthogonalEdgeStyle;sketch=1;hachureGap=4;jiggle=2;curveFitting=1;orthogonalLoop=1;jettySize=auto;html=1;fontFamily=Architects Daughter;fontSource=https%3A%2F%2Ffonts.googleapis.com%2Fcss%3Ffamily%3DArchitects%2BDaughter;fontSize=16;curved=1;exitX=0.5;exitY=1;exitDx=0;exitDy=0;" edge="1" parent="1" source="NxFaUKbc9Dm4StmFoYIx-15" target="NxFaUKbc9Dm4StmFoYIx-20">
          <mxGeometry relative="1" as="geometry" />
        </mxCell>
        <mxCell id="NxFaUKbc9Dm4StmFoYIx-28" style="edgeStyle=orthogonalEdgeStyle;sketch=1;hachureGap=4;jiggle=2;curveFitting=1;orthogonalLoop=1;jettySize=auto;html=1;entryX=0.5;entryY=0;entryDx=0;entryDy=0;fontFamily=Architects Daughter;fontSource=https%3A%2F%2Ffonts.googleapis.com%2Fcss%3Ffamily%3DArchitects%2BDaughter;fontSize=16;curved=1;exitX=0.5;exitY=1;exitDx=0;exitDy=0;" edge="1" parent="1" source="NxFaUKbc9Dm4StmFoYIx-15" target="NxFaUKbc9Dm4StmFoYIx-21">
          <mxGeometry relative="1" as="geometry" />
        </mxCell>
        <mxCell id="NxFaUKbc9Dm4StmFoYIx-29" style="edgeStyle=orthogonalEdgeStyle;sketch=1;hachureGap=4;jiggle=2;curveFitting=1;orthogonalLoop=1;jettySize=auto;html=1;entryX=0.5;entryY=0;entryDx=0;entryDy=0;fontFamily=Architects Daughter;fontSource=https%3A%2F%2Ffonts.googleapis.com%2Fcss%3Ffamily%3DArchitects%2BDaughter;fontSize=16;curved=1;exitX=0.5;exitY=1;exitDx=0;exitDy=0;" edge="1" parent="1" source="NxFaUKbc9Dm4StmFoYIx-15" target="NxFaUKbc9Dm4StmFoYIx-22">
          <mxGeometry relative="1" as="geometry" />
        </mxCell>
        <mxCell id="NxFaUKbc9Dm4StmFoYIx-87" value="" style="rounded=0;sketch=1;hachureGap=4;jiggle=2;curveFitting=1;orthogonalLoop=1;jettySize=auto;html=1;fontFamily=Architects Daughter;fontSource=https%3A%2F%2Ffonts.googleapis.com%2Fcss%3Ffamily%3DArchitects%2BDaughter;fontSize=16;exitX=1;exitY=0;exitDx=0;exitDy=0;entryX=0;entryY=1;entryDx=0;entryDy=0;" edge="1" parent="1" source="NxFaUKbc9Dm4StmFoYIx-15" target="NxFaUKbc9Dm4StmFoYIx-86">
          <mxGeometry relative="1" as="geometry" />
        </mxCell>
        <mxCell id="NxFaUKbc9Dm4StmFoYIx-15" value="학생" style="whiteSpace=wrap;html=1;align=center;labelBackgroundColor=none;fillColor=#182E3E;strokeColor=#FFFFFF;fontColor=#FFFFFF;rounded=0;sketch=1;curveFitting=1;jiggle=2;" vertex="1" parent="1">
          <mxGeometry x="280" y="140" width="80" height="40" as="geometry" />
        </mxCell>
        <mxCell id="NxFaUKbc9Dm4StmFoYIx-17" value="이름" style="ellipse;whiteSpace=wrap;html=1;align=center;strokeColor=#FFFFFF;fontColor=#FFFFFF;fillColor=#182E3E;rounded=0;labelBackgroundColor=none;sketch=1;curveFitting=1;jiggle=2;" vertex="1" parent="1">
          <mxGeometry x="130" y="260" width="80" height="40" as="geometry" />
        </mxCell>
        <mxCell id="NxFaUKbc9Dm4StmFoYIx-19" value="학과" style="ellipse;whiteSpace=wrap;html=1;align=center;strokeColor=#FFFFFF;fontColor=#FFFFFF;fillColor=#182E3E;rounded=0;labelBackgroundColor=none;sketch=1;curveFitting=1;jiggle=2;" vertex="1" parent="1">
          <mxGeometry x="230" y="260" width="80" height="40" as="geometry" />
        </mxCell>
        <mxCell id="NxFaUKbc9Dm4StmFoYIx-20" value="학년" style="ellipse;whiteSpace=wrap;html=1;align=center;strokeColor=#FFFFFF;fontColor=#FFFFFF;fillColor=#182E3E;rounded=0;labelBackgroundColor=none;sketch=1;curveFitting=1;jiggle=2;" vertex="1" parent="1">
          <mxGeometry x="330" y="260" width="80" height="40" as="geometry" />
        </mxCell>
        <mxCell id="NxFaUKbc9Dm4StmFoYIx-21" value="전화번호" style="ellipse;whiteSpace=wrap;html=1;align=center;strokeColor=#FFFFFF;fontColor=#FFFFFF;fillColor=#182E3E;rounded=0;labelBackgroundColor=none;sketch=1;curveFitting=1;jiggle=2;" vertex="1" parent="1">
          <mxGeometry x="430" y="260" width="80" height="40" as="geometry" />
        </mxCell>
        <mxCell id="NxFaUKbc9Dm4StmFoYIx-22" value="주소" style="ellipse;whiteSpace=wrap;html=1;align=center;strokeColor=#FFFFFF;fontColor=#FFFFFF;fillColor=#182E3E;rounded=0;labelBackgroundColor=none;sketch=1;curveFitting=1;jiggle=2;" vertex="1" parent="1">
          <mxGeometry x="530" y="260" width="80" height="40" as="geometry" />
        </mxCell>
        <mxCell id="NxFaUKbc9Dm4StmFoYIx-43" value="" style="sketch=1;hachureGap=4;jiggle=2;curveFitting=1;orthogonalLoop=1;jettySize=auto;html=1;entryX=0.5;entryY=0;entryDx=0;entryDy=0;fontFamily=Architects Daughter;fontSource=https%3A%2F%2Ffonts.googleapis.com%2Fcss%3Ffamily%3DArchitects%2BDaughter;fontSize=16;exitX=0.5;exitY=1;exitDx=0;exitDy=0;edgeStyle=orthogonalEdgeStyle;curved=1;" edge="1" parent="1" source="NxFaUKbc9Dm4StmFoYIx-15" target="NxFaUKbc9Dm4StmFoYIx-18">
          <mxGeometry relative="1" as="geometry">
            <mxPoint x="240" y="160" as="sourcePoint" />
            <mxPoint x="110" y="340" as="targetPoint" />
          </mxGeometry>
        </mxCell>
        <mxCell id="NxFaUKbc9Dm4StmFoYIx-18" value="학번" style="ellipse;whiteSpace=wrap;html=1;align=center;fontStyle=4;strokeColor=#FFFFFF;fontColor=#FFFFFF;fillColor=#182E3E;rounded=0;labelBackgroundColor=none;sketch=1;curveFitting=1;jiggle=2;" vertex="1" parent="1">
          <mxGeometry x="30" y="260" width="80" height="40" as="geometry" />
        </mxCell>
        <mxCell id="NxFaUKbc9Dm4StmFoYIx-73" style="edgeStyle=orthogonalEdgeStyle;sketch=1;hachureGap=4;jiggle=2;curveFitting=1;orthogonalLoop=1;jettySize=auto;html=1;entryX=0.5;entryY=0;entryDx=0;entryDy=0;fontFamily=Architects Daughter;fontSource=https%3A%2F%2Ffonts.googleapis.com%2Fcss%3Ffamily%3DArchitects%2BDaughter;fontSize=16;curved=1;exitX=0.5;exitY=1;exitDx=0;exitDy=0;" edge="1" source="NxFaUKbc9Dm4StmFoYIx-78" target="NxFaUKbc9Dm4StmFoYIx-79" parent="1">
          <mxGeometry relative="1" as="geometry" />
        </mxCell>
        <mxCell id="NxFaUKbc9Dm4StmFoYIx-74" style="edgeStyle=orthogonalEdgeStyle;sketch=1;hachureGap=4;jiggle=2;curveFitting=1;orthogonalLoop=1;jettySize=auto;html=1;entryX=0.5;entryY=0;entryDx=0;entryDy=0;fontFamily=Architects Daughter;fontSource=https%3A%2F%2Ffonts.googleapis.com%2Fcss%3Ffamily%3DArchitects%2BDaughter;fontSize=16;curved=1;" edge="1" source="NxFaUKbc9Dm4StmFoYIx-78" target="NxFaUKbc9Dm4StmFoYIx-80" parent="1">
          <mxGeometry relative="1" as="geometry" />
        </mxCell>
        <mxCell id="NxFaUKbc9Dm4StmFoYIx-75" style="edgeStyle=orthogonalEdgeStyle;sketch=1;hachureGap=4;jiggle=2;curveFitting=1;orthogonalLoop=1;jettySize=auto;html=1;fontFamily=Architects Daughter;fontSource=https%3A%2F%2Ffonts.googleapis.com%2Fcss%3Ffamily%3DArchitects%2BDaughter;fontSize=16;curved=1;exitX=0.5;exitY=1;exitDx=0;exitDy=0;" edge="1" source="NxFaUKbc9Dm4StmFoYIx-78" target="NxFaUKbc9Dm4StmFoYIx-81" parent="1">
          <mxGeometry relative="1" as="geometry" />
        </mxCell>
        <mxCell id="NxFaUKbc9Dm4StmFoYIx-76" style="edgeStyle=orthogonalEdgeStyle;sketch=1;hachureGap=4;jiggle=2;curveFitting=1;orthogonalLoop=1;jettySize=auto;html=1;entryX=0.5;entryY=0;entryDx=0;entryDy=0;fontFamily=Architects Daughter;fontSource=https%3A%2F%2Ffonts.googleapis.com%2Fcss%3Ffamily%3DArchitects%2BDaughter;fontSize=16;curved=1;exitX=0.5;exitY=1;exitDx=0;exitDy=0;" edge="1" source="NxFaUKbc9Dm4StmFoYIx-78" target="NxFaUKbc9Dm4StmFoYIx-82" parent="1">
          <mxGeometry relative="1" as="geometry" />
        </mxCell>
        <mxCell id="NxFaUKbc9Dm4StmFoYIx-77" style="edgeStyle=orthogonalEdgeStyle;sketch=1;hachureGap=4;jiggle=2;curveFitting=1;orthogonalLoop=1;jettySize=auto;html=1;entryX=0.5;entryY=0;entryDx=0;entryDy=0;fontFamily=Architects Daughter;fontSource=https%3A%2F%2Ffonts.googleapis.com%2Fcss%3Ffamily%3DArchitects%2BDaughter;fontSize=16;curved=1;exitX=0.5;exitY=1;exitDx=0;exitDy=0;" edge="1" source="NxFaUKbc9Dm4StmFoYIx-78" target="NxFaUKbc9Dm4StmFoYIx-83" parent="1">
          <mxGeometry relative="1" as="geometry" />
        </mxCell>
        <mxCell id="NxFaUKbc9Dm4StmFoYIx-88" style="rounded=0;sketch=1;hachureGap=4;jiggle=2;curveFitting=1;orthogonalLoop=1;jettySize=auto;html=1;exitX=0;exitY=0;exitDx=0;exitDy=0;entryX=1;entryY=1;entryDx=0;entryDy=0;fontFamily=Architects Daughter;fontSource=https%3A%2F%2Ffonts.googleapis.com%2Fcss%3Ffamily%3DArchitects%2BDaughter;fontSize=16;" edge="1" parent="1" source="NxFaUKbc9Dm4StmFoYIx-78" target="NxFaUKbc9Dm4StmFoYIx-86">
          <mxGeometry relative="1" as="geometry" />
        </mxCell>
        <mxCell id="NxFaUKbc9Dm4StmFoYIx-78" value="과목" style="whiteSpace=wrap;html=1;align=center;labelBackgroundColor=none;fillColor=#182E3E;strokeColor=#FFFFFF;fontColor=#FFFFFF;rounded=0;sketch=1;curveFitting=1;jiggle=2;" vertex="1" parent="1">
          <mxGeometry x="880" y="140" width="80" height="40" as="geometry" />
        </mxCell>
        <mxCell id="NxFaUKbc9Dm4StmFoYIx-79" value="과목명" style="ellipse;whiteSpace=wrap;html=1;align=center;strokeColor=#FFFFFF;fontColor=#FFFFFF;fillColor=#182E3E;rounded=0;labelBackgroundColor=none;sketch=1;curveFitting=1;jiggle=2;" vertex="1" parent="1">
          <mxGeometry x="730" y="260" width="80" height="40" as="geometry" />
        </mxCell>
        <mxCell id="NxFaUKbc9Dm4StmFoYIx-80" value="담당교수" style="ellipse;whiteSpace=wrap;html=1;align=center;strokeColor=#FFFFFF;fontColor=#FFFFFF;fillColor=#182E3E;rounded=0;labelBackgroundColor=none;sketch=1;curveFitting=1;jiggle=2;" vertex="1" parent="1">
          <mxGeometry x="830" y="260" width="80" height="40" as="geometry" />
        </mxCell>
        <mxCell id="NxFaUKbc9Dm4StmFoYIx-81" value="강의실" style="ellipse;whiteSpace=wrap;html=1;align=center;strokeColor=#FFFFFF;fontColor=#FFFFFF;fillColor=#182E3E;rounded=0;labelBackgroundColor=none;sketch=1;curveFitting=1;jiggle=2;" vertex="1" parent="1">
          <mxGeometry x="930" y="260" width="80" height="40" as="geometry" />
        </mxCell>
        <mxCell id="NxFaUKbc9Dm4StmFoYIx-82" value="연락처" style="ellipse;whiteSpace=wrap;html=1;align=center;strokeColor=#FFFFFF;fontColor=#FFFFFF;fillColor=#182E3E;rounded=0;labelBackgroundColor=none;sketch=1;curveFitting=1;jiggle=2;" vertex="1" parent="1">
          <mxGeometry x="1030" y="260" width="80" height="40" as="geometry" />
        </mxCell>
        <mxCell id="NxFaUKbc9Dm4StmFoYIx-83" value="조교" style="ellipse;whiteSpace=wrap;html=1;align=center;strokeColor=#FFFFFF;fontColor=#FFFFFF;fillColor=#182E3E;rounded=0;labelBackgroundColor=none;sketch=1;curveFitting=1;jiggle=2;" vertex="1" parent="1">
          <mxGeometry x="1130" y="260" width="80" height="40" as="geometry" />
        </mxCell>
        <mxCell id="NxFaUKbc9Dm4StmFoYIx-84" value="" style="edgeStyle=orthogonalEdgeStyle;sketch=1;hachureGap=4;jiggle=2;curveFitting=1;orthogonalLoop=1;jettySize=auto;html=1;entryX=0.5;entryY=0;entryDx=0;entryDy=0;fontFamily=Architects Daughter;fontSource=https%3A%2F%2Ffonts.googleapis.com%2Fcss%3Ffamily%3DArchitects%2BDaughter;fontSize=16;curved=1;exitX=0.5;exitY=1;exitDx=0;exitDy=0;" edge="1" source="NxFaUKbc9Dm4StmFoYIx-78" target="NxFaUKbc9Dm4StmFoYIx-85" parent="1">
          <mxGeometry relative="1" as="geometry">
            <mxPoint x="840" y="160" as="sourcePoint" />
            <mxPoint x="710" y="340" as="targetPoint" />
          </mxGeometry>
        </mxCell>
        <mxCell id="NxFaUKbc9Dm4StmFoYIx-85" value="과목코드" style="ellipse;whiteSpace=wrap;html=1;align=center;fontStyle=4;strokeColor=#FFFFFF;fontColor=#FFFFFF;fillColor=#182E3E;rounded=0;labelBackgroundColor=none;sketch=1;curveFitting=1;jiggle=2;" vertex="1" parent="1">
          <mxGeometry x="630" y="260" width="80" height="40" as="geometry" />
        </mxCell>
        <mxCell id="NxFaUKbc9Dm4StmFoYIx-86" value="수강신청" style="rhombus;whiteSpace=wrap;html=1;fillColor=#182E3E;strokeColor=#FFFFFF;fontColor=#FFFFFF;labelBackgroundColor=none;rounded=0;sketch=1;curveFitting=1;jiggle=2;hachureGap=4;fontFamily=Architects Daughter;fontSource=https%3A%2F%2Ffonts.googleapis.com%2Fcss%3Ffamily%3DArchitects%2BDaughter;fontSize=20;" vertex="1" parent="1">
          <mxGeometry x="540" y="40" width="160" height="80" as="geometry" />
        </mxCell>
      </root>
    </mxGraphModel>
  </diagram>
</mxfile>
